<svg version="1.1" id="Layer_1" xmlns="http://www.w3.org/2000/svg" xmlns:xlink="http://www.w3.org/1999/xlink" x="0px" y="0px"
	 width="100%" viewBox="0 0 1024 1024" enable-background="new 0 0 1024 1024" xml:space="preserve">
<path fill="#000000" opacity="1.000000" stroke="none" 
	d="
M576.102417,381.698303 
	C591.026611,379.801697 606.501343,392.725677 605.462463,410.553375 
	C604.758972,422.626373 603.088684,422.695465 616.826050,422.731171 
	C623.449524,422.748352 627.307556,427.120941 627.323914,434.049377 
	C627.340515,441.077911 622.987732,446.189728 616.250610,446.286865 
	C601.924255,446.493347 587.593506,446.400757 573.264526,446.402832 
	C525.112183,446.409851 476.959808,446.406006 428.807434,446.402496 
	C422.483856,446.402039 416.158051,446.479187 409.837280,446.339783 
	C403.203033,446.193451 398.638702,441.107391 398.710388,434.206207 
	C398.778015,427.695831 403.428314,422.724945 409.968384,422.737213 
	C420.796814,422.757538 422.110046,424.101929 421.588928,410.250885 
	C421.246552,401.150085 423.847473,393.614136 430.844940,387.612823 
	C435.475006,383.641876 440.598602,381.354004 446.787842,381.694824 
	C452.853943,382.028900 458.832031,381.586456 464.172180,378.346313 
	C472.232208,373.455719 476.032532,365.950562 476.618774,356.761017 
	C476.936279,351.784058 476.779114,346.787964 477.588196,341.828094 
	C478.158844,338.330017 477.078186,335.957825 473.176514,334.717041 
	C443.474335,325.271210 419.516327,307.809509 401.291687,282.519653 
	C399.632385,280.217102 397.516418,278.899933 394.750702,278.370422 
	C352.708496,270.321899 324.718933,244.836380 306.948639,207.028244 
	C297.613098,187.165939 293.241608,166.121353 293.682404,144.107437 
	C293.918915,132.294403 299.330566,126.807228 311.305725,126.770828 
	C328.800690,126.717644 346.295898,126.747238 363.790985,126.721039 
	C370.415314,126.711121 370.637512,126.497581 370.663574,120.060638 
	C370.697327,111.729744 370.618561,103.398026 370.701477,95.067787 
	C370.787079,86.464615 374.638641,82.460609 383.209473,81.390846 
	C387.904572,80.804832 392.517456,81.660751 397.176483,81.654228 
	C447.995514,81.583038 498.814667,81.610298 549.633789,81.585098 
	C580.282593,81.569908 610.931458,81.518906 641.580261,81.464668 
	C652.435608,81.445457 655.068787,83.563919 656.667175,94.214516 
	C657.935120,102.663147 656.995605,111.179184 657.099915,119.663223 
	C657.186707,126.720230 657.063416,126.731934 664.337280,126.734367 
	C680.332825,126.739716 696.328430,126.725342 712.323975,126.734634 
	C729.165588,126.744423 733.603271,130.910233 733.265320,147.578613 
	C732.497498,185.445587 719.846863,218.719864 692.923706,245.685745 
	C675.899841,262.736603 655.747620,274.804688 631.333618,278.347198 
	C628.636536,278.738525 626.919556,280.207489 625.338318,282.333527 
	C607.266418,306.631439 584.480835,324.638824 555.379822,333.932861 
	C550.752563,335.410736 548.420715,337.760803 549.399414,342.532654 
	C550.777039,349.249207 549.537903,356.173279 551.325256,362.854614 
	C554.550354,374.910675 563.079651,381.593597 576.102417,381.698303 
M395.327423,172.499908 
	C395.097687,188.977448 395.020752,205.458984 399.055267,221.595474 
	C405.676910,248.079330 419.228424,270.534607 439.983307,288.161469 
	C471.914642,315.280365 508.310272,324.203949 548.457336,310.560272 
	C597.650330,293.842346 629.902588,247.093124 631.519043,194.473694 
	C632.352417,167.344467 631.682800,140.168701 631.666199,113.013969 
	C631.662415,106.882668 630.967773,106.134262 624.737793,106.116058 
	C607.412537,106.065414 590.086975,106.117821 572.761536,106.116585 
	C516.120361,106.112549 459.479218,106.093575 402.838043,106.106270 
	C395.343018,106.107948 395.333099,106.177452 395.330811,113.525307 
	C395.324829,132.850159 395.328369,152.175018 395.327423,172.499908 
M342.032501,217.479401 
	C351.941193,230.399811 363.493347,241.272583 378.690643,247.671875 
	C380.673828,245.278259 379.504944,243.423920 378.892670,241.602463 
	C372.907227,223.796432 370.134094,205.532150 370.616943,186.730164 
	C370.873108,176.753860 370.564575,166.764145 370.708862,156.783356 
	C370.767365,152.737885 369.261292,151.180466 365.123444,151.242233 
	C352.647522,151.428467 340.167084,151.306183 327.688385,151.310257 
	C319.361786,151.312973 318.382538,152.324112 319.457642,160.476746 
	C322.178223,181.107178 329.035950,200.134964 342.032501,217.479401 
M662.916809,239.406998 
	C664.506348,238.200409 666.150940,237.059372 667.677185,235.777435 
	C692.362793,215.043549 704.502686,187.995682 707.631775,156.398972 
	C707.985474,152.827637 706.813721,151.224426 702.979248,151.263260 
	C689.665283,151.398148 676.345337,151.486481 663.035767,151.205109 
	C658.258179,151.104126 657.020935,153.062729 657.012695,157.379517 
	C656.989441,169.518967 656.772217,181.660294 656.546570,193.797577 
	C656.230286,210.805695 653.121338,227.099686 647.602051,243.064697 
	C647.146606,244.382019 645.977173,245.711105 647.480347,247.756012 
	C653.243835,246.895447 657.524841,242.813660 662.916809,239.406998 
M473.499847,422.632080 
	C476.164917,422.632019 478.829987,422.631561 481.495056,422.632019 
	C512.475708,422.637299 543.456421,422.659790 574.437012,422.611664 
	C576.625916,422.608246 579.185669,423.418793 580.669067,420.708618 
	C584.924438,412.934204 580.541992,405.289337 571.691162,405.280182 
	C540.710144,405.248169 509.729126,405.273407 478.748108,405.280579 
	C470.086761,405.282562 461.424713,405.232208 452.764374,405.329712 
	C447.489868,405.389099 445.634369,407.298950 445.347137,412.581421 
	C445.274902,413.910156 445.470032,415.263977 445.300140,416.574890 
	C444.728485,420.984955 446.939392,422.620789 451.013641,422.612305 
	C458.175690,422.597382 465.337799,422.624786 473.499847,422.632080 
M499.895081,381.708740 
	C508.561523,381.707458 517.228271,381.749908 525.894287,381.689850 
	C531.868164,381.648438 532.474670,380.693268 530.473633,375.288086 
	C529.321472,372.175873 528.277039,369.048706 527.551819,365.770355 
	C526.050720,358.984406 526.911194,352.156311 526.681213,345.354736 
	C526.561523,341.811310 525.150757,340.145477 521.523071,340.279175 
	C518.028015,340.407928 514.524292,340.302795 511.024414,340.303894 
	C499.849457,340.307404 500.180756,338.664093 500.421051,351.122375 
	C500.590942,359.933594 499.570465,368.452087 495.690094,376.369568 
	C493.644226,380.543915 494.776672,381.870850 499.895081,381.708740 
z"/>
<path fill="#000000" opacity="1.000000" stroke="none" 
	d="
M676.815430,506.000000 
	C676.813416,464.179596 676.806946,422.859161 676.816101,381.538757 
	C676.818665,369.866669 681.027954,365.700989 692.821655,365.699524 
	C731.809753,365.694702 770.797791,365.697876 809.785889,365.717407 
	C819.854004,365.722443 824.314087,370.214874 824.315613,380.365112 
	C824.335144,509.991974 824.347839,639.618835 824.347290,769.245728 
	C824.347290,781.750183 820.767761,785.299683 808.385376,785.299316 
	C769.897156,785.298035 731.408936,785.298279 692.920715,785.298645 
	C681.116089,785.298706 676.796265,780.890259 676.797791,768.919495 
	C676.809082,681.446350 676.811646,593.973145 676.815430,506.000000 
M800.661377,508.500061 
	C800.659546,471.674042 800.675354,434.848022 800.640259,398.022034 
	C800.633606,391.074432 799.743591,390.207092 792.880981,390.201508 
	C765.219910,390.179077 737.558777,390.207123 709.897705,390.201569 
	C701.314087,390.199860 701.308044,390.178253 701.308044,398.762054 
	C701.307983,490.077484 701.310608,581.392944 701.311340,672.708374 
	C701.311523,700.036377 701.374817,727.364624 701.238281,754.691956 
	C701.216492,759.056213 702.613098,761.337830 707.132202,761.306885 
	C708.626892,761.296692 710.123291,761.562927 711.618225,761.555298 
	C738.080261,761.421021 764.542358,761.272400 791.004272,761.106995 
	C800.058899,761.050415 800.663025,760.432068 800.663208,751.452698 
	C800.664673,670.801819 800.662170,590.150940 800.661377,508.500061 
z"/>
<path fill="#000000" opacity="1.000000" stroke="none" 
	d="
M497.000061,947.024292 
	C449.678070,947.023254 402.855957,947.033264 356.033966,946.987488 
	C346.729095,946.978394 342.759949,944.592102 340.528107,938.067993 
	C338.100464,930.971497 342.890564,923.467896 350.387665,922.791260 
	C352.868561,922.567322 355.382996,922.694580 357.882080,922.694763 
	C525.177734,922.708923 692.473389,922.727478 859.769043,922.741760 
	C872.166016,922.742798 879.699463,915.049988 879.703552,902.212524 
	C879.733948,807.233948 879.733154,712.255432 879.741882,617.276855 
	C879.742859,606.279419 879.708374,595.281799 879.753052,584.284546 
	C879.787048,575.917480 884.373352,570.886536 891.873108,570.847290 
	C898.862244,570.810608 904.275085,576.546814 904.277588,584.326477 
	C904.311951,691.135803 904.377258,797.945190 904.258484,904.754395 
	C904.234436,926.375244 884.500916,945.896729 862.872192,946.339966 
	C780.576233,948.026550 698.271179,946.657776 615.970886,947.006226 
	C576.481262,947.173462 536.990356,947.022583 497.000061,947.024292 
z"/>
<path fill="#000000" opacity="1.000000" stroke="none" 
	d="
M146.315796,638.000000 
	C146.314117,724.978821 146.309937,811.457581 146.312149,897.936401 
	C146.312515,912.274231 149.756302,917.337280 163.178558,922.829102 
	C170.900131,925.988464 174.078842,931.634583 171.938614,938.389221 
	C170.117157,944.137634 163.598160,947.197815 156.298889,945.730896 
	C136.455032,941.742798 122.931076,924.282593 122.880898,901.836731 
	C122.742706,840.019653 122.779747,778.202087 122.785988,716.384705 
	C122.800499,572.588440 122.844223,428.792145 122.851997,284.995880 
	C122.852562,274.518860 123.985428,264.364197 130.140778,255.431686 
	C139.005249,242.567764 151.322220,235.840652 166.877762,235.767075 
	C204.201126,235.590500 241.528442,235.940781 278.848236,235.534164 
	C288.182404,235.432449 293.165649,242.765793 293.185577,248.252823 
	C293.211578,255.411346 287.448425,260.292938 278.930847,260.296997 
	C241.939926,260.314575 204.945587,260.572205 167.960144,260.118774 
	C156.751450,259.981384 146.105881,269.101410 146.137955,282.088501 
	C146.430466,400.558411 146.313065,519.029358 146.315796,638.000000 
z"/>
<path fill="#000000" opacity="1.000000" stroke="none" 
	d="
M505.810577,503.135498 
	C505.808868,497.240204 505.987701,491.864410 510.982452,488.275299 
	C513.628784,486.373749 516.594116,485.672211 519.909973,485.678192 
	C557.904053,485.746674 595.898376,485.712067 633.892578,485.727112 
	C643.641663,485.730988 648.330383,490.370697 648.331177,500.058868 
	C648.338379,590.545227 648.332153,681.031555 648.313538,771.517883 
	C648.311584,780.841309 643.898987,785.267090 634.530396,785.274963 
	C596.536133,785.306763 558.541870,785.299988 520.547607,785.289673 
	C510.601929,785.286926 505.896820,780.725769 505.840637,770.572388 
	C505.734650,751.409424 505.857300,732.245361 505.855164,713.081726 
	C505.847473,643.259583 505.827515,573.437439 505.810577,503.135498 
M530.290466,635.500000 
	C530.288330,675.148560 530.280884,714.797180 530.289429,754.445740 
	C530.290710,760.545898 531.025330,761.505066 537.102234,761.525085 
	C563.585632,761.612488 590.069702,761.602966 616.553101,761.515381 
	C622.267944,761.496521 623.676086,759.933044 623.676880,754.361572 
	C623.688232,675.564331 623.683350,596.767151 623.664490,517.969910 
	C623.663025,511.852905 622.133301,510.381470 615.912659,510.377960 
	C589.924805,510.363220 563.936890,510.356781 537.949036,510.380615 
	C530.777527,510.387207 530.302246,510.897186 530.300537,518.053406 
	C530.291199,556.868958 530.292664,595.684448 530.290466,635.500000 
z"/>
<path fill="#000000" opacity="1.000000" stroke="none" 
	d="
M476.983032,570.574829 
	C479.350555,584.872131 477.999908,598.882141 478.059052,612.837952 
	C478.280640,665.136292 478.177979,717.435974 478.200623,769.735168 
	C478.205261,780.495117 473.447845,785.288818 462.693298,785.291199 
	C429.214569,785.298523 395.735840,785.301208 362.257111,785.293091 
	C350.671478,785.290344 346.671387,781.282715 346.670837,769.720886 
	C346.667664,705.594971 346.665192,641.469055 346.668976,577.343140 
	C346.669586,566.718872 350.399658,562.819153 360.995667,562.799866 
	C395.307037,562.737305 429.618561,562.786194 463.930023,562.758240 
	C469.711212,562.753540 474.423401,564.440979 476.983032,570.574829 
M370.312927,629.500000 
	C370.315521,670.994690 370.312408,712.489380 370.326813,753.984070 
	C370.328979,760.254517 371.133514,761.199219 377.453278,761.472534 
	C382.273712,761.680969 387.110565,761.503235 391.940125,761.507935 
	C410.103882,761.525513 428.267609,761.560852 446.431366,761.557922 
	C450.675751,761.557251 453.800934,760.636658 453.790283,755.166809 
	C453.684937,701.007446 453.699615,646.847839 453.790405,592.688477 
	C453.797363,588.529663 452.265991,587.214050 448.196777,587.237488 
	C424.533966,587.373901 400.869995,587.285278 377.206482,587.324890 
	C371.399323,587.334656 370.363068,588.458313 370.340820,594.504517 
	C370.299103,605.836182 370.318909,617.168152 370.312927,629.500000 
z"/>
<path fill="#000000" opacity="1.000000" stroke="none" 
	d="
M247.487885,724.490234 
	C254.338791,717.660034 261.113464,711.237976 267.488037,704.440674 
	C272.074310,699.550293 272.831665,694.048828 270.308960,689.841553 
	C265.544525,681.895508 254.420486,682.443298 249.402496,690.929077 
	C248.392654,692.636841 247.737091,694.554810 246.925079,696.378845 
	C244.390167,702.073242 238.404358,705.293945 233.270279,703.722595 
	C226.990173,701.800354 223.559753,695.794373 224.974258,689.197754 
	C228.704315,671.802490 248.451065,659.015625 266.129272,662.301086 
	C279.921997,664.864441 289.940674,671.919678 293.547516,685.849731 
	C296.806244,698.435059 293.194275,709.531372 284.065460,718.782166 
	C277.397034,725.539673 270.683105,732.252258 264.007782,739.002991 
	C263.337341,739.680908 262.327209,740.180969 262.432465,741.462341 
	C264.017670,743.051758 266.099335,742.648438 268.028900,742.666809 
	C274.358246,742.727112 280.691467,742.577698 287.017426,742.737976 
	C293.484467,742.901917 298.291321,747.725586 298.270966,753.712524 
	C298.249115,760.134277 293.523682,765.167358 286.940582,765.218445 
	C269.950836,765.350159 252.959473,765.289734 235.968796,765.269104 
	C231.154144,765.263245 227.543961,762.963196 225.737167,758.605469 
	C223.713562,753.724792 223.775574,748.653564 227.505112,744.534851 
	C232.079514,739.483093 237.030411,734.771240 241.843536,729.937256 
	C243.605713,728.167419 245.439331,726.468811 247.487885,724.490234 
z"/>
<path fill="#000000" opacity="1.000000" stroke="none" 
	d="
M264.549438,904.362244 
	C254.175552,902.561035 250.219101,897.491455 253.171249,890.202209 
	C254.362671,887.260437 256.268646,885.093079 259.628967,884.622559 
	C260.286194,884.530457 260.930511,884.346008 261.580902,884.204895 
	C268.085114,882.793762 271.030487,880.226318 271.617157,875.451416 
	C272.129486,871.281433 270.277649,868.401672 266.694916,866.483154 
	C262.239624,864.097534 256.104950,864.921265 252.368134,868.639526 
	C250.981918,870.018799 249.797195,871.724548 248.937958,873.485168 
	C246.743713,877.981567 243.306198,879.980103 238.410477,879.045166 
	C234.041214,878.210815 230.014938,873.672791 229.665588,869.242065 
	C228.952682,860.200134 233.743881,853.896545 240.745041,849.355042 
	C259.983185,836.875610 289.458466,844.641113 293.714874,871.455139 
	C294.808350,878.343689 292.912628,884.635620 288.392975,890.004150 
	C286.598083,892.136108 285.673828,893.950012 287.987152,896.458923 
	C302.131256,911.798767 294.618774,938.012878 272.987183,944.381531 
	C258.491638,948.649353 245.372009,946.480774 234.085373,935.981628 
	C230.856049,932.977661 228.635086,929.286682 227.382950,925.039856 
	C225.724747,919.416138 228.059113,914.319092 233.400162,911.877014 
	C238.861389,909.379944 243.870270,910.887756 246.961426,916.283386 
	C249.972656,921.539490 254.593369,924.078552 260.362366,924.598450 
	C266.124939,925.117737 271.752655,921.298523 272.726898,916.583740 
	C273.830139,911.244812 271.019745,906.847351 264.549438,904.362244 
z"/>
<path fill="#000000" opacity="1.000000" stroke="none" 
	d="
M262.733002,581.983398 
	C256.684174,579.403503 254.754181,574.692261 254.730453,568.971436 
	C254.673141,555.151611 254.736404,541.331238 254.674789,527.511414 
	C254.667038,525.771484 255.271683,523.845154 253.783951,522.210388 
	C251.474472,522.470642 250.112152,524.328186 248.331146,525.423828 
	C243.237869,528.557190 237.186401,527.632935 233.534912,523.076111 
	C229.582397,518.143616 229.565430,511.686035 234.368698,507.828461 
	C242.144699,501.583527 250.162857,495.579376 258.487335,490.093536 
	C268.660522,483.389496 278.797882,491.845612 278.494568,502.216553 
	C277.852325,524.176697 278.316071,546.168701 278.292389,568.147644 
	C278.280945,578.790833 273.899536,582.790894 262.733002,581.983398 
z"/>
<path fill="#000000" opacity="1.000000" stroke="none" 
	d="
M280.000000,612.761597 
	C286.995789,612.765930 293.493866,612.662720 299.986847,612.800659 
	C307.863800,612.967957 312.857422,617.791199 312.932892,625.044067 
	C313.010956,632.550903 307.968201,637.264893 299.672516,637.274597 
	C272.023590,637.307007 244.374603,637.309204 216.725693,637.287659 
	C208.697891,637.281433 203.808960,632.771057 203.674469,625.401611 
	C203.533356,617.669128 208.252975,612.832336 216.540512,612.788330 
	C237.526459,612.676880 258.513428,612.757385 280.000000,612.761597 
z"/>
<path fill="#000000" opacity="1.000000" stroke="none" 
	d="
M279.000061,797.717224 
	C286.658661,797.717163 293.817963,797.653992 300.975616,797.735779 
	C308.134247,797.817505 312.532593,802.269958 312.534882,809.250061 
	C312.537384,816.906555 308.501282,821.255005 301.043304,821.269958 
	C272.575531,821.327087 244.107559,821.325073 215.639725,821.288086 
	C208.613708,821.278931 203.776978,816.567322 203.720184,809.938660 
	C203.659592,802.864868 208.547791,797.860046 216.070892,797.775330 
	C228.888168,797.630859 241.708191,797.728638 254.527054,797.724731 
	C262.518036,797.722290 270.509033,797.720032 279.000061,797.717224 
z"/>
<path fill="#000000" opacity="1.000000" stroke="none" 
	d="
M562.291138,257.935669 
	C562.607605,260.014404 562.977234,261.639557 563.185486,263.285126 
	C564.367737,272.626038 556.047852,278.972443 547.443848,275.018341 
	C537.462585,270.431335 527.618103,265.534668 517.832825,260.540070 
	C514.706787,258.944519 512.128967,258.912384 508.956024,260.462402 
	C498.492767,265.573822 488.314423,271.353973 477.361603,275.361603 
	C469.686768,278.169769 461.861206,271.416595 462.988037,263.358917 
	C463.585510,259.086456 464.497803,254.858978 465.165497,250.595154 
	C466.320648,243.218491 467.396240,235.829361 468.504852,228.445404 
	C468.913727,225.722000 467.017059,224.107071 465.426971,222.480209 
	C458.208893,215.095154 450.891876,207.806915 443.636444,200.458206 
	C440.902588,197.689240 438.461334,194.738419 438.814911,190.468811 
	C439.287170,184.765717 442.993591,180.715805 448.997192,179.861374 
	C459.510376,178.365082 470.028198,176.794022 480.597168,175.845474 
	C485.498962,175.405548 487.936493,173.231354 489.737518,168.933624 
	C493.789276,159.264847 498.258118,149.771439 502.505463,140.183762 
	C504.679169,135.276901 508.204315,132.652069 513.735718,132.670807 
	C519.167236,132.689194 522.295593,135.587570 524.376648,140.230423 
	C529.005493,150.557007 533.749146,160.832367 538.336853,171.177002 
	C539.601196,174.027817 541.271423,175.486618 544.631104,175.817505 
	C555.694763,176.907181 566.712097,178.461090 577.754822,179.772614 
	C582.782227,180.369690 585.825562,183.174194 587.578430,187.805222 
	C589.299561,192.352554 587.744690,196.051605 584.679932,199.188492 
	C577.347168,206.693802 570.058350,214.265274 562.333252,221.353867 
	C558.648254,224.735229 557.727356,228.334167 558.456177,232.888809 
	C559.767273,241.083328 561.002747,249.289932 562.291138,257.935669 
M510.554260,178.174911 
	C508.903564,181.627563 507.064453,185.005005 505.648987,188.551544 
	C503.802124,193.178879 500.711182,195.825455 495.682678,196.393356 
	C491.564331,196.858490 487.480621,197.646393 483.391327,198.348282 
	C479.515167,199.013626 478.651093,201.192322 481.268768,204.184891 
	C483.675049,206.935822 486.223480,209.607285 488.989471,211.988312 
	C493.326019,215.721359 494.007446,220.363937 493.023590,225.567337 
	C492.314545,229.317291 491.562042,233.059677 490.771790,236.793350 
	C490.352295,238.775391 489.828888,240.728027 492.159088,242.401978 
	C497.468506,240.047012 502.957977,237.734726 508.334717,235.184616 
	C511.966278,233.462219 515.285889,233.757599 518.813354,235.505447 
	C522.982544,237.571274 527.264832,239.435089 531.593323,241.145615 
	C535.417114,242.656723 536.890686,241.296310 536.108582,237.216965 
	C535.452576,233.794968 534.784607,230.371658 533.980896,226.982346 
	C532.397766,220.306061 533.464111,214.682938 539.084412,209.977631 
	C542.287354,207.296127 545.914490,204.703918 547.873230,200.185593 
	C543.859741,197.701294 539.484558,197.754913 535.317932,197.364670 
	C528.040222,196.682999 522.116699,194.419754 519.496399,186.758652 
	C518.536926,183.953384 516.948242,181.345169 515.489136,178.735107 
	C514.454346,176.884125 513.162842,175.150467 510.554260,178.174911 
z"/>
</svg>